<mxfile host="app.diagrams.net" modified="2021-03-14T11:09:50.455Z" agent="5.0 (X11; Linux x86_64) AppleWebKit/537.36 (KHTML, like Gecko) Chrome/83.0.4103.61 Safari/537.36" etag="fYOmMI7eAorR3Zp93gCZ" version="14.1.2" type="github">
  <diagram id="Upb9YwU80NbwUcUxDpR-" name="Page-1">
    <mxGraphModel dx="782" dy="441" grid="1" gridSize="10" guides="1" tooltips="1" connect="1" arrows="1" fold="1" page="1" pageScale="1" pageWidth="827" pageHeight="1169" math="0" shadow="0">
      <root>
        <mxCell id="0" />
        <mxCell id="1" parent="0" />
        <mxCell id="ZxN5-0mAGQVxzS-nN2jD-5" value="&amp;nbsp; &amp;nbsp; &amp;nbsp; &amp;nbsp; &amp;nbsp; &amp;nbsp; &amp;nbsp; &amp;nbsp; &amp;nbsp; &amp;nbsp; &amp;nbsp; &amp;nbsp; &amp;nbsp; &amp;nbsp; &amp;nbsp; &amp;nbsp; &amp;nbsp; &amp;nbsp; &amp;nbsp; &amp;nbsp; &amp;nbsp; &amp;nbsp; &amp;nbsp; &amp;nbsp; &amp;nbsp; &amp;nbsp; &amp;nbsp; &amp;nbsp; &amp;nbsp; &amp;nbsp; &amp;nbsp; &amp;nbsp; &amp;nbsp; &amp;nbsp; &amp;nbsp; &amp;nbsp; &amp;nbsp; &amp;nbsp; &amp;nbsp; &amp;nbsp; &amp;nbsp; &amp;nbsp; &amp;nbsp; &amp;nbsp; &amp;nbsp; &amp;nbsp; &amp;nbsp; &amp;nbsp; &amp;nbsp; &amp;nbsp; &amp;nbsp; &amp;nbsp; &amp;nbsp; &amp;nbsp; &amp;nbsp; &amp;nbsp; &amp;nbsp; &amp;nbsp; &amp;nbsp; &amp;nbsp; &amp;nbsp; &amp;nbsp; &amp;nbsp; &amp;nbsp; &amp;nbsp; &amp;nbsp; &amp;nbsp; &amp;nbsp; &amp;nbsp; &amp;nbsp; &amp;nbsp; &amp;nbsp; &amp;nbsp; &amp;nbsp; &amp;nbsp; &amp;nbsp; &amp;nbsp; &amp;nbsp; &amp;nbsp; &amp;nbsp; &amp;nbsp; &amp;nbsp; &amp;nbsp; &amp;nbsp; &amp;nbsp; &amp;nbsp;" style="rounded=1;whiteSpace=wrap;html=1;" vertex="1" parent="1">
          <mxGeometry x="110" y="60" width="620" height="60" as="geometry" />
        </mxCell>
        <mxCell id="ZxN5-0mAGQVxzS-nN2jD-4" style="edgeStyle=orthogonalEdgeStyle;rounded=0;orthogonalLoop=1;jettySize=auto;html=1;exitX=0.5;exitY=1;exitDx=0;exitDy=0;" edge="1" parent="1" source="ZxN5-0mAGQVxzS-nN2jD-1" target="ZxN5-0mAGQVxzS-nN2jD-5">
          <mxGeometry relative="1" as="geometry">
            <mxPoint x="420" y="60" as="targetPoint" />
          </mxGeometry>
        </mxCell>
        <mxCell id="ZxN5-0mAGQVxzS-nN2jD-1" value="A2CT" style="rounded=0;whiteSpace=wrap;html=1;" vertex="1" parent="1">
          <mxGeometry x="360" y="10" width="120" height="20" as="geometry" />
        </mxCell>
        <mxCell id="ZxN5-0mAGQVxzS-nN2jD-6" value="" style="rounded=0;whiteSpace=wrap;html=1;" vertex="1" parent="1">
          <mxGeometry x="160" y="75" width="120" height="30" as="geometry" />
        </mxCell>
        <mxCell id="ZxN5-0mAGQVxzS-nN2jD-9" value="" style="rounded=0;whiteSpace=wrap;html=1;" vertex="1" parent="1">
          <mxGeometry x="310" y="75" width="120" height="30" as="geometry" />
        </mxCell>
        <mxCell id="ZxN5-0mAGQVxzS-nN2jD-13" value="" style="rounded=1;whiteSpace=wrap;html=1;" vertex="1" parent="1">
          <mxGeometry x="160" y="160" width="520" height="210" as="geometry" />
        </mxCell>
        <mxCell id="ZxN5-0mAGQVxzS-nN2jD-21" value="" style="rounded=0;whiteSpace=wrap;html=1;" vertex="1" parent="1">
          <mxGeometry x="190" y="180" width="170" height="100" as="geometry" />
        </mxCell>
        <mxCell id="ZxN5-0mAGQVxzS-nN2jD-28" value="" style="rounded=0;whiteSpace=wrap;html=1;" vertex="1" parent="1">
          <mxGeometry x="230" y="200" width="170" height="100" as="geometry" />
        </mxCell>
        <mxCell id="ZxN5-0mAGQVxzS-nN2jD-29" value="" style="rounded=0;whiteSpace=wrap;html=1;" vertex="1" parent="1">
          <mxGeometry x="310" y="220" width="340" height="130" as="geometry" />
        </mxCell>
        <mxCell id="ZxN5-0mAGQVxzS-nN2jD-30" value="Pod 1" style="text;html=1;strokeColor=none;fillColor=none;align=center;verticalAlign=middle;whiteSpace=wrap;rounded=0;" vertex="1" parent="1">
          <mxGeometry x="320" y="160" width="40" height="20" as="geometry" />
        </mxCell>
        <mxCell id="ZxN5-0mAGQVxzS-nN2jD-33" value="Pod 2" style="text;html=1;strokeColor=none;fillColor=none;align=center;verticalAlign=middle;whiteSpace=wrap;rounded=0;" vertex="1" parent="1">
          <mxGeometry x="360" y="180" width="40" height="20" as="geometry" />
        </mxCell>
        <mxCell id="ZxN5-0mAGQVxzS-nN2jD-34" value="Pod 3" style="text;html=1;strokeColor=none;fillColor=none;align=center;verticalAlign=middle;whiteSpace=wrap;rounded=0;" vertex="1" parent="1">
          <mxGeometry x="610" y="200" width="40" height="20" as="geometry" />
        </mxCell>
        <mxCell id="ZxN5-0mAGQVxzS-nN2jD-35" value="&lt;font style=&quot;font-size: 8px&quot;&gt;Kafka Consumer (With Group)&lt;/font&gt;" style="rounded=1;whiteSpace=wrap;html=1;" vertex="1" parent="1">
          <mxGeometry x="310" y="230" width="136" height="20" as="geometry" />
        </mxCell>
        <mxCell id="ZxN5-0mAGQVxzS-nN2jD-37" value="&lt;span style=&quot;font-size: 8px&quot;&gt;Validation Service&lt;/span&gt;" style="rounded=1;whiteSpace=wrap;html=1;" vertex="1" parent="1">
          <mxGeometry x="344" y="270" width="136" height="20" as="geometry" />
        </mxCell>
        <mxCell id="ZxN5-0mAGQVxzS-nN2jD-38" value="&lt;span style=&quot;font-size: 8px&quot;&gt;DAO Service&lt;/span&gt;" style="rounded=1;whiteSpace=wrap;html=1;" vertex="1" parent="1">
          <mxGeometry x="420" y="300" width="136" height="20" as="geometry" />
        </mxCell>
        <mxCell id="ZxN5-0mAGQVxzS-nN2jD-40" value="Consumer Pods" style="text;html=1;strokeColor=none;fillColor=none;align=center;verticalAlign=middle;whiteSpace=wrap;rounded=0;" vertex="1" parent="1">
          <mxGeometry x="570" y="160" width="110" height="20" as="geometry" />
        </mxCell>
        <mxCell id="ZxN5-0mAGQVxzS-nN2jD-41" value="" style="shape=cylinder3;whiteSpace=wrap;html=1;boundedLbl=1;backgroundOutline=1;size=15;" vertex="1" parent="1">
          <mxGeometry x="310" y="408" width="330" height="140" as="geometry" />
        </mxCell>
        <mxCell id="ZxN5-0mAGQVxzS-nN2jD-42" value="DB" style="text;html=1;strokeColor=none;fillColor=none;align=center;verticalAlign=middle;whiteSpace=wrap;rounded=0;" vertex="1" parent="1">
          <mxGeometry x="610" y="380" width="40" height="20" as="geometry" />
        </mxCell>
        <mxCell id="ZxN5-0mAGQVxzS-nN2jD-43" value="Kafka" style="text;html=1;strokeColor=none;fillColor=none;align=center;verticalAlign=middle;whiteSpace=wrap;rounded=0;" vertex="1" parent="1">
          <mxGeometry x="690" y="60" width="40" height="20" as="geometry" />
        </mxCell>
        <mxCell id="ZxN5-0mAGQVxzS-nN2jD-46" value="&lt;font style=&quot;font-size: 10px&quot;&gt;cleared_request&lt;/font&gt;" style="whiteSpace=wrap;html=1;aspect=fixed;" vertex="1" parent="1">
          <mxGeometry x="320" y="440" width="80" height="80" as="geometry" />
        </mxCell>
        <mxCell id="ZxN5-0mAGQVxzS-nN2jD-50" value="" style="endArrow=classic;html=1;exitX=0.5;exitY=1;exitDx=0;exitDy=0;" edge="1" parent="1" source="ZxN5-0mAGQVxzS-nN2jD-38" target="ZxN5-0mAGQVxzS-nN2jD-46">
          <mxGeometry width="50" height="50" relative="1" as="geometry">
            <mxPoint x="400" y="470" as="sourcePoint" />
            <mxPoint x="450" y="420" as="targetPoint" />
          </mxGeometry>
        </mxCell>
        <mxCell id="ZxN5-0mAGQVxzS-nN2jD-51" value="" style="rounded=0;whiteSpace=wrap;html=1;" vertex="1" parent="1">
          <mxGeometry x="80" y="600" width="190" height="350" as="geometry" />
        </mxCell>
        <mxCell id="ZxN5-0mAGQVxzS-nN2jD-54" value="Shedular Pod" style="text;html=1;strokeColor=none;fillColor=none;align=center;verticalAlign=middle;whiteSpace=wrap;rounded=0;" vertex="1" parent="1">
          <mxGeometry x="180" y="580" width="80" height="20" as="geometry" />
        </mxCell>
        <mxCell id="ZxN5-0mAGQVxzS-nN2jD-57" value="" style="rounded=0;whiteSpace=wrap;html=1;" vertex="1" parent="1">
          <mxGeometry x="115" y="620" width="120" height="60" as="geometry" />
        </mxCell>
        <mxCell id="ZxN5-0mAGQVxzS-nN2jD-58" value="&lt;span style=&quot;font-size: 11px&quot;&gt;Start Batch&amp;nbsp; -Bankcard&lt;/span&gt;" style="text;html=1;strokeColor=none;fillColor=none;align=center;verticalAlign=middle;whiteSpace=wrap;rounded=0;" vertex="1" parent="1">
          <mxGeometry x="105" y="620" width="140" height="20" as="geometry" />
        </mxCell>
        <mxCell id="ZxN5-0mAGQVxzS-nN2jD-60" value="" style="rounded=0;whiteSpace=wrap;html=1;" vertex="1" parent="1">
          <mxGeometry x="110" y="880" width="120" height="60" as="geometry" />
        </mxCell>
        <mxCell id="ZxN5-0mAGQVxzS-nN2jD-61" value="&lt;span style=&quot;font-size: 11px&quot;&gt;End Batch&amp;nbsp; -Bankcard&lt;/span&gt;" style="text;html=1;strokeColor=none;fillColor=none;align=center;verticalAlign=middle;whiteSpace=wrap;rounded=0;" vertex="1" parent="1">
          <mxGeometry x="105" y="880" width="140" height="20" as="geometry" />
        </mxCell>
        <mxCell id="ZxN5-0mAGQVxzS-nN2jD-63" value="" style="rounded=0;whiteSpace=wrap;html=1;" vertex="1" parent="1">
          <mxGeometry x="110" y="700" width="120" height="170" as="geometry" />
        </mxCell>
        <mxCell id="ZxN5-0mAGQVxzS-nN2jD-65" value="Message Pub Service Banckcard" style="text;html=1;strokeColor=none;fillColor=none;align=center;verticalAlign=middle;whiteSpace=wrap;rounded=0;" vertex="1" parent="1">
          <mxGeometry x="135" y="760" width="70" height="20" as="geometry" />
        </mxCell>
        <mxCell id="ZxN5-0mAGQVxzS-nN2jD-66" value="" style="rounded=0;whiteSpace=wrap;html=1;" vertex="1" parent="1">
          <mxGeometry x="340" y="640" width="520" height="260" as="geometry" />
        </mxCell>
        <mxCell id="ZxN5-0mAGQVxzS-nN2jD-70" value="" style="rounded=0;whiteSpace=wrap;html=1;" vertex="1" parent="1">
          <mxGeometry x="370" y="660" width="120" height="60" as="geometry" />
        </mxCell>
        <mxCell id="ZxN5-0mAGQVxzS-nN2jD-71" value="" style="rounded=0;whiteSpace=wrap;html=1;" vertex="1" parent="1">
          <mxGeometry x="436" y="690" width="120" height="60" as="geometry" />
        </mxCell>
        <mxCell id="ZxN5-0mAGQVxzS-nN2jD-72" value="" style="rounded=0;whiteSpace=wrap;html=1;" vertex="1" parent="1">
          <mxGeometry x="510" y="720" width="290" height="120" as="geometry" />
        </mxCell>
        <mxCell id="ZxN5-0mAGQVxzS-nN2jD-73" value="Provider Pod" style="text;html=1;strokeColor=none;fillColor=none;align=center;verticalAlign=middle;whiteSpace=wrap;rounded=0;" vertex="1" parent="1">
          <mxGeometry x="760" y="620" width="100" height="20" as="geometry" />
        </mxCell>
        <mxCell id="ZxN5-0mAGQVxzS-nN2jD-75" value="Pod 1" style="text;html=1;strokeColor=none;fillColor=none;align=center;verticalAlign=middle;whiteSpace=wrap;rounded=0;" vertex="1" parent="1">
          <mxGeometry x="450" y="640" width="40" height="20" as="geometry" />
        </mxCell>
        <mxCell id="ZxN5-0mAGQVxzS-nN2jD-76" value="Pod 2" style="text;html=1;strokeColor=none;fillColor=none;align=center;verticalAlign=middle;whiteSpace=wrap;rounded=0;" vertex="1" parent="1">
          <mxGeometry x="516" y="670" width="40" height="20" as="geometry" />
        </mxCell>
        <mxCell id="ZxN5-0mAGQVxzS-nN2jD-77" value="Pod n" style="text;html=1;strokeColor=none;fillColor=none;align=center;verticalAlign=middle;whiteSpace=wrap;rounded=0;" vertex="1" parent="1">
          <mxGeometry x="760" y="700" width="40" height="20" as="geometry" />
        </mxCell>
        <mxCell id="ZxN5-0mAGQVxzS-nN2jD-78" value="Message Sub Service Banckcard" style="text;html=1;strokeColor=none;fillColor=none;align=center;verticalAlign=middle;whiteSpace=wrap;rounded=0;" vertex="1" parent="1">
          <mxGeometry x="610" y="750" width="70" height="20" as="geometry" />
        </mxCell>
        <mxCell id="ZxN5-0mAGQVxzS-nN2jD-81" value="" style="endArrow=classic;html=1;" edge="1" parent="1" target="ZxN5-0mAGQVxzS-nN2jD-66">
          <mxGeometry width="50" height="50" relative="1" as="geometry">
            <mxPoint x="270" y="780" as="sourcePoint" />
            <mxPoint x="336" y="800" as="targetPoint" />
          </mxGeometry>
        </mxCell>
        <mxCell id="ZxN5-0mAGQVxzS-nN2jD-82" value="Load Balance Sub" style="text;html=1;strokeColor=none;fillColor=none;align=center;verticalAlign=middle;whiteSpace=wrap;rounded=0;" vertex="1" parent="1">
          <mxGeometry x="290" y="740" width="40" height="20" as="geometry" />
        </mxCell>
      </root>
    </mxGraphModel>
  </diagram>
</mxfile>
